<?xml version="1.0" encoding="UTF-8" standalone="no"?>
<!DOCTYPE svg PUBLIC "-//W3C//DTD SVG 1.1//EN"
 "http://www.w3.org/Graphics/SVG/1.1/DTD/svg11.dtd">
<!-- Generated by graphviz version 2.40.1 (20161225.0304)
 -->
<!-- Title: dependencies Pages: 1 -->
<svg width="504pt" height="211pt"
 viewBox="0.00 0.00 504.00 211.00" xmlns="http://www.w3.org/2000/svg" xmlns:xlink="http://www.w3.org/1999/xlink">
<g id="graph0" class="graph" transform="scale(1 1) rotate(0) translate(4 207)">
<title>dependencies</title>
<polygon fill="#ffffff" stroke="transparent" points="-4,4 -4,-207 500,-207 500,4 -4,4"/>
<text text-anchor="start" x="227.0091" y="-42.4" font-family="sans-serif" font-weight="bold" font-size="14.00" fill="#000000">Legend</text>
<polygon fill="#ffffb3" stroke="transparent" points="14,-10 14,-30 34,-30 34,-10 14,-10"/>
<text text-anchor="start" x="37.629" y="-15.4" font-family="sans-serif" font-size="14.00" fill="#000000"> &#160;Declarations</text>
<polygon fill="#8dd3c7" stroke="transparent" points="127,-10 127,-30 147,-30 147,-10 127,-10"/>
<text text-anchor="start" x="150.7251" y="-15.4" font-family="sans-serif" font-size="14.00" fill="#000000"> &#160;Module</text>
<polygon fill="#80b1d3" stroke="transparent" points="213,-10 213,-30 233,-30 233,-10 213,-10"/>
<text text-anchor="start" x="236.7812" y="-15.4" font-family="sans-serif" font-size="14.00" fill="#000000"> &#160;Bootstrap</text>
<polygon fill="#fdb462" stroke="transparent" points="310,-10 310,-30 330,-30 330,-10 310,-10"/>
<text text-anchor="start" x="333.6732" y="-15.4" font-family="sans-serif" font-size="14.00" fill="#000000"> &#160;Providers</text>
<polygon fill="#fb8072" stroke="transparent" points="406,-10 406,-30 426,-30 426,-10 406,-10"/>
<text text-anchor="start" x="429.7258" y="-15.4" font-family="sans-serif" font-size="14.00" fill="#000000"> &#160;Exports</text>
<g id="clust1" class="cluster">
<title>cluster_W3AuthModule</title>
<polygon fill="none" stroke="#000000" stroke-dasharray="1,5" points="69.5,-70 69.5,-195 426.5,-195 426.5,-70 69.5,-70"/>
</g>
<g id="clust6" class="cluster">
<title>cluster_W3AuthModule_providers</title>
<polygon fill="none" stroke="#000000" points="77.5,-78 77.5,-130 418.5,-130 418.5,-78 77.5,-78"/>
</g>
<!-- W3AuthInterceptor -->
<g id="node1" class="node">
<title>W3AuthInterceptor</title>
<ellipse fill="#fdb462" stroke="#000000" cx="323.5" cy="-104" rx="86.7991" ry="18"/>
<text text-anchor="middle" x="323.5" y="-99.8" font-family="Times,serif" font-size="14.00" fill="#000000">W3AuthInterceptor</text>
</g>
<!-- W3AuthModule -->
<g id="node3" class="node">
<title>W3AuthModule</title>
<polygon fill="#8dd3c7" stroke="#000000" points="377.2619,-187 374.2619,-191 353.2619,-191 350.2619,-187 269.7381,-187 269.7381,-151 377.2619,-151 377.2619,-187"/>
<text text-anchor="middle" x="323.5" y="-164.8" font-family="Times,serif" font-size="14.00" fill="#000000">W3AuthModule</text>
</g>
<!-- W3AuthInterceptor&#45;&gt;W3AuthModule -->
<g id="edge1" class="edge">
<title>W3AuthInterceptor&#45;&gt;W3AuthModule</title>
<path fill="none" stroke="#000000" d="M305.5397,-121.7615C305.5397,-121.7615 305.5397,-140.8074 305.5397,-140.8074"/>
<polygon fill="#000000" stroke="#000000" points="302.0398,-140.8074 305.5397,-150.8074 309.0398,-140.8075 302.0398,-140.8074"/>
</g>
<!-- W3AuthInterceptor&#45;&gt;W3AuthModule -->
<g id="edge2" class="edge">
<title>W3AuthInterceptor&#45;&gt;W3AuthModule</title>
<path fill="none" stroke="#000000" d="M341.4603,-121.7615C341.4603,-121.7615 341.4603,-140.8074 341.4603,-140.8074"/>
<polygon fill="#000000" stroke="#000000" points="337.9604,-140.8074 341.4603,-150.8074 344.9604,-140.8075 337.9604,-140.8074"/>
</g>
<!-- W3MeService -->
<g id="node2" class="node">
<title>W3MeService</title>
<ellipse fill="#fdb462" stroke="#000000" cx="152.5" cy="-104" rx="66.6132" ry="18"/>
<text text-anchor="middle" x="152.5" y="-99.8" font-family="Times,serif" font-size="14.00" fill="#000000">W3MeService</text>
</g>
<!-- W3MeService&#45;&gt;W3AuthModule -->
<g id="edge3" class="edge">
<title>W3MeService&#45;&gt;W3AuthModule</title>
<path fill="none" stroke="#000000" d="M152.5,-122.1061C152.5,-141.3391 152.5,-169 152.5,-169 152.5,-169 259.3945,-169 259.3945,-169"/>
<polygon fill="#000000" stroke="#000000" points="259.3946,-172.5001 269.3945,-169 259.3945,-165.5001 259.3946,-172.5001"/>
</g>
</g>
</svg>
