<?xml version="1.0" encoding="UTF-8" standalone="no"?>
<!DOCTYPE svg PUBLIC "-//W3C//DTD SVG 1.1//EN"
 "http://www.w3.org/Graphics/SVG/1.1/DTD/svg11.dtd">
<!-- Generated by graphviz version 2.40.1 (20161225.0304)
 -->
<!-- Title: dependencies Pages: 1 -->
<svg width="504pt" height="284pt"
 viewBox="0.00 0.00 504.00 284.00" xmlns="http://www.w3.org/2000/svg" xmlns:xlink="http://www.w3.org/1999/xlink">
<g id="graph0" class="graph" transform="scale(1 1) rotate(0) translate(4 280)">
<title>dependencies</title>
<polygon fill="#ffffff" stroke="transparent" points="-4,4 -4,-280 500,-280 500,4 -4,4"/>
<text text-anchor="start" x="227.0091" y="-42.4" font-family="sans-serif" font-weight="bold" font-size="14.00" fill="#000000">Legend</text>
<polygon fill="#ffffb3" stroke="transparent" points="14,-10 14,-30 34,-30 34,-10 14,-10"/>
<text text-anchor="start" x="37.629" y="-15.4" font-family="sans-serif" font-size="14.00" fill="#000000"> &#160;Declarations</text>
<polygon fill="#8dd3c7" stroke="transparent" points="127,-10 127,-30 147,-30 147,-10 127,-10"/>
<text text-anchor="start" x="150.7251" y="-15.4" font-family="sans-serif" font-size="14.00" fill="#000000"> &#160;Module</text>
<polygon fill="#80b1d3" stroke="transparent" points="213,-10 213,-30 233,-30 233,-10 213,-10"/>
<text text-anchor="start" x="236.7812" y="-15.4" font-family="sans-serif" font-size="14.00" fill="#000000"> &#160;Bootstrap</text>
<polygon fill="#fdb462" stroke="transparent" points="310,-10 310,-30 330,-30 330,-10 310,-10"/>
<text text-anchor="start" x="333.6732" y="-15.4" font-family="sans-serif" font-size="14.00" fill="#000000"> &#160;Providers</text>
<polygon fill="#fb8072" stroke="transparent" points="406,-10 406,-30 426,-30 426,-10 406,-10"/>
<text text-anchor="start" x="429.7258" y="-15.4" font-family="sans-serif" font-size="14.00" fill="#000000"> &#160;Exports</text>
<g id="clust1" class="cluster">
<title>cluster_W3AclModule</title>
<polygon fill="none" stroke="#000000" stroke-dasharray="1,5" points="80,-70 80,-268 416,-268 416,-70 80,-70"/>
</g>
<g id="clust2" class="cluster">
<title>cluster_W3AclModule_declarations</title>
<polygon fill="none" stroke="#000000" points="260,-78 260,-130 408,-130 408,-78 260,-78"/>
</g>
<g id="clust4" class="cluster">
<title>cluster_W3AclModule_imports</title>
<polygon fill="none" stroke="#000000" points="88,-78 88,-130 252,-130 252,-78 88,-78"/>
</g>
<g id="clust5" class="cluster">
<title>cluster_W3AclModule_exports</title>
<polygon fill="none" stroke="#000000" points="176,-208 176,-260 326,-260 326,-208 176,-208"/>
</g>
<!-- W3AclCanDirective -->
<g id="node1" class="node">
<title>W3AclCanDirective</title>
<polygon fill="#ffffb3" stroke="#000000" points="399.5604,-122 268.4396,-122 268.4396,-86 399.5604,-86 399.5604,-122"/>
<text text-anchor="middle" x="334" y="-99.8" font-family="Times,serif" font-size="14.00" fill="#000000">W3AclCanDirective</text>
</g>
<!-- W3AclModule -->
<g id="node2" class="node">
<title>W3AclModule</title>
<polygon fill="#8dd3c7" stroke="#000000" points="300.9762,-187 297.9762,-191 276.9762,-191 273.9762,-187 201.0238,-187 201.0238,-151 300.9762,-151 300.9762,-187"/>
<text text-anchor="middle" x="251" y="-164.8" font-family="Times,serif" font-size="14.00" fill="#000000">W3AclModule</text>
</g>
<!-- W3AclCanDirective&#45;&gt;W3AclModule -->
<g id="edge1" class="edge">
<title>W3AclCanDirective&#45;&gt;W3AclModule</title>
<path fill="none" stroke="#000000" d="M284.729,-122.1061C284.729,-122.1061 284.729,-140.991 284.729,-140.991"/>
<polygon fill="#000000" stroke="#000000" points="281.229,-140.9909 284.729,-150.991 288.229,-140.991 281.229,-140.9909"/>
</g>
<!-- W3AclCanDirective  -->
<g id="node4" class="node">
<title>W3AclCanDirective </title>
<polygon fill="#fb8072" stroke="#000000" points="318.0611,-252 183.9389,-252 183.9389,-216 318.0611,-216 318.0611,-252"/>
<text text-anchor="middle" x="251" y="-229.8" font-family="Times,serif" font-size="14.00" fill="#000000">W3AclCanDirective </text>
</g>
<!-- W3AclModule&#45;&gt;W3AclCanDirective  -->
<g id="edge3" class="edge">
<title>W3AclModule&#45;&gt;W3AclCanDirective </title>
<path fill="none" stroke="#000000" stroke-dasharray="5,2" d="M251,-187.1061C251,-187.1061 251,-205.991 251,-205.991"/>
<polygon fill="#000000" stroke="#000000" points="247.5001,-205.9909 251,-215.991 254.5001,-205.991 247.5001,-205.9909"/>
</g>
<!-- W3NotificationModule -->
<g id="node3" class="node">
<title>W3NotificationModule</title>
<polygon fill="#8dd3c7" stroke="#000000" points="243.9144,-122 240.9144,-126 219.9144,-126 216.9144,-122 96.0856,-122 96.0856,-86 243.9144,-86 243.9144,-122"/>
<text text-anchor="middle" x="170" y="-99.8" font-family="Times,serif" font-size="14.00" fill="#000000">W3NotificationModule</text>
</g>
<!-- W3NotificationModule&#45;&gt;W3AclModule -->
<g id="edge2" class="edge">
<title>W3NotificationModule&#45;&gt;W3AclModule</title>
<path fill="none" stroke="#000000" d="M222.3594,-122.1061C222.3594,-122.1061 222.3594,-140.991 222.3594,-140.991"/>
<polygon fill="#000000" stroke="#000000" points="218.8595,-140.9909 222.3594,-150.991 225.8595,-140.991 218.8595,-140.9909"/>
</g>
</g>
</svg>
