<?xml version="1.0" encoding="UTF-8" standalone="no"?>
<!DOCTYPE svg PUBLIC "-//W3C//DTD SVG 1.1//EN"
 "http://www.w3.org/Graphics/SVG/1.1/DTD/svg11.dtd">
<!-- Generated by graphviz version 2.40.1 (20161225.0304)
 -->
<!-- Title: dependencies Pages: 1 -->
<svg width="504pt" height="284pt"
 viewBox="0.00 0.00 504.00 284.00" xmlns="http://www.w3.org/2000/svg" xmlns:xlink="http://www.w3.org/1999/xlink">
<g id="graph0" class="graph" transform="scale(1 1) rotate(0) translate(4 280)">
<title>dependencies</title>
<polygon fill="#ffffff" stroke="transparent" points="-4,4 -4,-280 500,-280 500,4 -4,4"/>
<text text-anchor="start" x="227.0091" y="-42.4" font-family="sans-serif" font-weight="bold" font-size="14.00" fill="#000000">Legend</text>
<polygon fill="#ffffb3" stroke="transparent" points="14,-10 14,-30 34,-30 34,-10 14,-10"/>
<text text-anchor="start" x="37.629" y="-15.4" font-family="sans-serif" font-size="14.00" fill="#000000"> &#160;Declarations</text>
<polygon fill="#8dd3c7" stroke="transparent" points="127,-10 127,-30 147,-30 147,-10 127,-10"/>
<text text-anchor="start" x="150.7251" y="-15.4" font-family="sans-serif" font-size="14.00" fill="#000000"> &#160;Module</text>
<polygon fill="#80b1d3" stroke="transparent" points="213,-10 213,-30 233,-30 233,-10 213,-10"/>
<text text-anchor="start" x="236.7812" y="-15.4" font-family="sans-serif" font-size="14.00" fill="#000000"> &#160;Bootstrap</text>
<polygon fill="#fdb462" stroke="transparent" points="310,-10 310,-30 330,-30 330,-10 310,-10"/>
<text text-anchor="start" x="333.6732" y="-15.4" font-family="sans-serif" font-size="14.00" fill="#000000"> &#160;Providers</text>
<polygon fill="#fb8072" stroke="transparent" points="406,-10 406,-30 426,-30 426,-10 406,-10"/>
<text text-anchor="start" x="429.7258" y="-15.4" font-family="sans-serif" font-size="14.00" fill="#000000"> &#160;Exports</text>
<g id="clust1" class="cluster">
<title>cluster_W3NotificationModule</title>
<polygon fill="none" stroke="#000000" stroke-dasharray="1,5" points="14,-70 14,-268 482,-268 482,-70 14,-70"/>
</g>
<g id="clust2" class="cluster">
<title>cluster_W3NotificationModule_declarations</title>
<polygon fill="none" stroke="#000000" points="248,-78 248,-130 474,-130 474,-78 248,-78"/>
</g>
<g id="clust5" class="cluster">
<title>cluster_W3NotificationModule_exports</title>
<polygon fill="none" stroke="#000000" points="133,-208 133,-260 363,-260 363,-208 133,-208"/>
</g>
<g id="clust7" class="cluster">
<title>cluster_W3NotificationModule_providers</title>
<polygon fill="none" stroke="#000000" points="22,-78 22,-130 240,-130 240,-78 22,-78"/>
</g>
<!-- W3MatConfirmDialogComponent -->
<g id="node1" class="node">
<title>W3MatConfirmDialogComponent</title>
<polygon fill="#ffffb3" stroke="#000000" points="465.6385,-122 256.3615,-122 256.3615,-86 465.6385,-86 465.6385,-122"/>
<text text-anchor="middle" x="361" y="-99.8" font-family="Times,serif" font-size="14.00" fill="#000000">W3MatConfirmDialogComponent</text>
</g>
<!-- W3NotificationModule -->
<g id="node2" class="node">
<title>W3NotificationModule</title>
<polygon fill="#8dd3c7" stroke="#000000" points="321.9144,-187 318.9144,-191 297.9144,-191 294.9144,-187 174.0856,-187 174.0856,-151 321.9144,-151 321.9144,-187"/>
<text text-anchor="middle" x="248" y="-164.8" font-family="Times,serif" font-size="14.00" fill="#000000">W3NotificationModule</text>
</g>
<!-- W3MatConfirmDialogComponent&#45;&gt;W3NotificationModule -->
<g id="edge1" class="edge">
<title>W3MatConfirmDialogComponent&#45;&gt;W3NotificationModule</title>
<path fill="none" stroke="#000000" d="M288.9439,-122.1061C288.9439,-122.1061 288.9439,-140.991 288.9439,-140.991"/>
<polygon fill="#000000" stroke="#000000" points="285.444,-140.9909 288.9439,-150.991 292.444,-140.991 285.444,-140.9909"/>
</g>
<!-- W3MatConfirmDialogComponent  -->
<g id="node3" class="node">
<title>W3MatConfirmDialogComponent </title>
<polygon fill="#fb8072" stroke="#000000" points="354.6382,-252 141.3618,-252 141.3618,-216 354.6382,-216 354.6382,-252"/>
<text text-anchor="middle" x="248" y="-229.8" font-family="Times,serif" font-size="14.00" fill="#000000">W3MatConfirmDialogComponent </text>
</g>
<!-- W3NotificationModule&#45;&gt;W3MatConfirmDialogComponent  -->
<g id="edge2" class="edge">
<title>W3NotificationModule&#45;&gt;W3MatConfirmDialogComponent </title>
<path fill="none" stroke="#000000" stroke-dasharray="5,2" d="M248,-187.1061C248,-187.1061 248,-205.991 248,-205.991"/>
<polygon fill="#000000" stroke="#000000" points="244.5001,-205.9909 248,-215.991 251.5001,-205.991 244.5001,-205.9909"/>
</g>
<!-- W3NotificationService -->
<g id="node4" class="node">
<title>W3NotificationService</title>
<ellipse fill="#fdb462" stroke="#000000" cx="131" cy="-104" rx="100.6978" ry="18"/>
<text text-anchor="middle" x="131" y="-99.8" font-family="Times,serif" font-size="14.00" fill="#000000">W3NotificationService</text>
</g>
<!-- W3NotificationService&#45;&gt;W3NotificationModule -->
<g id="edge3" class="edge">
<title>W3NotificationService&#45;&gt;W3NotificationModule</title>
<path fill="none" stroke="#000000" d="M202.946,-116.8419C202.946,-116.8419 202.946,-140.5231 202.946,-140.5231"/>
<polygon fill="#000000" stroke="#000000" points="199.4461,-140.523 202.946,-150.5231 206.4461,-140.5231 199.4461,-140.523"/>
</g>
</g>
</svg>
