<?xml version="1.0" encoding="UTF-8" standalone="no"?>
<!DOCTYPE svg PUBLIC "-//W3C//DTD SVG 1.1//EN"
 "http://www.w3.org/Graphics/SVG/1.1/DTD/svg11.dtd">
<!-- Generated by graphviz version 2.40.1 (20161225.0304)
 -->
<!-- Title: dependencies Pages: 1 -->
<svg width="1785pt" height="363pt"
 viewBox="0.00 0.00 1785.00 363.00" xmlns="http://www.w3.org/2000/svg" xmlns:xlink="http://www.w3.org/1999/xlink">
<g id="graph0" class="graph" transform="scale(1 1) rotate(0) translate(4 359)">
<title>dependencies</title>
<polygon fill="#ffffff" stroke="transparent" points="-4,4 -4,-359 1781,-359 1781,4 -4,4"/>
<text text-anchor="start" x="867.5091" y="-42.4" font-family="sans-serif" font-weight="bold" font-size="14.00" fill="#000000">Legend</text>
<polygon fill="#ffffb3" stroke="transparent" points="654.5,-10 654.5,-30 674.5,-30 674.5,-10 654.5,-10"/>
<text text-anchor="start" x="678.129" y="-15.4" font-family="sans-serif" font-size="14.00" fill="#000000"> &#160;Declarations</text>
<polygon fill="#8dd3c7" stroke="transparent" points="767.5,-10 767.5,-30 787.5,-30 787.5,-10 767.5,-10"/>
<text text-anchor="start" x="791.2251" y="-15.4" font-family="sans-serif" font-size="14.00" fill="#000000"> &#160;Module</text>
<polygon fill="#80b1d3" stroke="transparent" points="853.5,-10 853.5,-30 873.5,-30 873.5,-10 853.5,-10"/>
<text text-anchor="start" x="877.2812" y="-15.4" font-family="sans-serif" font-size="14.00" fill="#000000"> &#160;Bootstrap</text>
<polygon fill="#fdb462" stroke="transparent" points="950.5,-10 950.5,-30 970.5,-30 970.5,-10 950.5,-10"/>
<text text-anchor="start" x="974.1732" y="-15.4" font-family="sans-serif" font-size="14.00" fill="#000000"> &#160;Providers</text>
<polygon fill="#fb8072" stroke="transparent" points="1046.5,-10 1046.5,-30 1066.5,-30 1066.5,-10 1046.5,-10"/>
<text text-anchor="start" x="1070.2258" y="-15.4" font-family="sans-serif" font-size="14.00" fill="#000000"> &#160;Exports</text>
<g id="clust1" class="cluster">
<title>cluster_W3AclModule</title>
<polygon fill="none" stroke="#000000" stroke-dasharray="1,5" points="267,-146 267,-347 603,-347 603,-146 267,-146"/>
</g>
<g id="clust2" class="cluster">
<title>cluster_W3AclModule_declarations</title>
<polygon fill="none" stroke="#000000" points="447,-154 447,-206 595,-206 595,-154 447,-154"/>
</g>
<g id="clust4" class="cluster">
<title>cluster_W3AclModule_imports</title>
<polygon fill="none" stroke="#000000" points="275,-154 275,-206 439,-206 439,-154 275,-154"/>
</g>
<g id="clust5" class="cluster">
<title>cluster_W3AclModule_exports</title>
<polygon fill="none" stroke="#000000" points="363,-287 363,-339 513,-339 513,-287 363,-287"/>
</g>
<g id="clust8" class="cluster">
<title>cluster_W3AuthModule</title>
<polygon fill="none" stroke="#000000" stroke-dasharray="1,5" points="722,-70 722,-206 1079,-206 1079,-70 722,-70"/>
</g>
<g id="clust13" class="cluster">
<title>cluster_W3AuthModule_providers</title>
<polygon fill="none" stroke="#000000" points="730,-78 730,-130 1071,-130 1071,-78 730,-78"/>
</g>
<g id="clust14" class="cluster">
<title>cluster_W3Module</title>
<polygon fill="none" stroke="#000000" stroke-dasharray="1,5" points="1087,-70 1087,-279 1533,-279 1533,-70 1087,-70"/>
</g>
<g id="clust15" class="cluster">
<title>cluster_W3Module_declarations</title>
<polygon fill="none" stroke="#000000" points="1099,-78 1099,-130 1521,-130 1521,-78 1099,-78"/>
</g>
<g id="clust20" class="cluster">
<title>cluster_W3Module_exports</title>
<polygon fill="none" stroke="#000000" points="1095,-219 1095,-271 1525,-271 1525,-219 1095,-219"/>
</g>
<g id="clust23" class="cluster">
<title>cluster_W3NotificationModule</title>
<polygon fill="none" stroke="#000000" stroke-dasharray="1,5" points="8,-70 8,-138 714,-138 714,-70 8,-70"/>
</g>
<g id="clust24" class="cluster">
<title>cluster_W3NotificationModule_declarations</title>
<polygon fill="none" stroke="#000000" points="480,-78 480,-130 706,-130 706,-78 480,-78"/>
</g>
<g id="clust27" class="cluster">
<title>cluster_W3NotificationModule_exports</title>
<polygon fill="none" stroke="#000000" points="242,-78 242,-130 472,-130 472,-78 242,-78"/>
</g>
<g id="clust29" class="cluster">
<title>cluster_W3NotificationModule_providers</title>
<polygon fill="none" stroke="#000000" points="16,-78 16,-130 234,-130 234,-78 16,-78"/>
</g>
<g id="clust30" class="cluster">
<title>cluster_WebSocketModule</title>
<polygon fill="none" stroke="#000000" stroke-dasharray="1,5" points="1541,-70 1541,-206 1769,-206 1769,-70 1541,-70"/>
</g>
<g id="clust35" class="cluster">
<title>cluster_WebSocketModule_providers</title>
<polygon fill="none" stroke="#000000" points="1549,-78 1549,-130 1761,-130 1761,-78 1549,-78"/>
</g>
<!-- W3AclCanDirective -->
<g id="node1" class="node">
<title>W3AclCanDirective</title>
<polygon fill="#ffffb3" stroke="#000000" points="586.5604,-198 455.4396,-198 455.4396,-162 586.5604,-162 586.5604,-198"/>
<text text-anchor="middle" x="521" y="-175.8" font-family="Times,serif" font-size="14.00" fill="#000000">W3AclCanDirective</text>
</g>
<!-- W3AclModule -->
<g id="node2" class="node">
<title>W3AclModule</title>
<polygon fill="#8dd3c7" stroke="#000000" points="487.9762,-263 484.9762,-267 463.9762,-267 460.9762,-263 388.0238,-263 388.0238,-227 487.9762,-227 487.9762,-263"/>
<text text-anchor="middle" x="438" y="-240.8" font-family="Times,serif" font-size="14.00" fill="#000000">W3AclModule</text>
</g>
<!-- W3AclCanDirective&#45;&gt;W3AclModule -->
<g id="edge1" class="edge">
<title>W3AclCanDirective&#45;&gt;W3AclModule</title>
<path fill="none" stroke="#000000" d="M471.729,-198.1061C471.729,-198.1061 471.729,-216.991 471.729,-216.991"/>
<polygon fill="#000000" stroke="#000000" points="468.229,-216.9909 471.729,-226.991 475.229,-216.991 468.229,-216.9909"/>
</g>
<!-- W3AclCanDirective  -->
<g id="node4" class="node">
<title>W3AclCanDirective </title>
<polygon fill="#fb8072" stroke="#000000" points="505.0611,-331 370.9389,-331 370.9389,-295 505.0611,-295 505.0611,-331"/>
<text text-anchor="middle" x="438" y="-308.8" font-family="Times,serif" font-size="14.00" fill="#000000">W3AclCanDirective </text>
</g>
<!-- W3AclModule&#45;&gt;W3AclCanDirective  -->
<g id="edge3" class="edge">
<title>W3AclModule&#45;&gt;W3AclCanDirective </title>
<path fill="none" stroke="#000000" stroke-dasharray="5,2" d="M438,-263.2228C438,-263.2228 438,-284.7269 438,-284.7269"/>
<polygon fill="#000000" stroke="#000000" points="434.5001,-284.7269 438,-294.7269 441.5001,-284.727 434.5001,-284.7269"/>
</g>
<!-- W3NotificationModule -->
<g id="node3" class="node">
<title>W3NotificationModule</title>
<polygon fill="#8dd3c7" stroke="#000000" points="430.9144,-198 427.9144,-202 406.9144,-202 403.9144,-198 283.0856,-198 283.0856,-162 430.9144,-162 430.9144,-198"/>
<text text-anchor="middle" x="357" y="-175.8" font-family="Times,serif" font-size="14.00" fill="#000000">W3NotificationModule</text>
</g>
<!-- W3NotificationModule&#45;&gt;W3AclModule -->
<g id="edge2" class="edge">
<title>W3NotificationModule&#45;&gt;W3AclModule</title>
<path fill="none" stroke="#000000" d="M409.3594,-198.1061C409.3594,-198.1061 409.3594,-216.991 409.3594,-216.991"/>
<polygon fill="#000000" stroke="#000000" points="405.8595,-216.9909 409.3594,-226.991 412.8595,-216.991 405.8595,-216.9909"/>
</g>
<!-- W3MatConfirmDialogComponent  -->
<g id="node16" class="node">
<title>W3MatConfirmDialogComponent </title>
<polygon fill="#fb8072" stroke="#000000" points="463.6382,-122 250.3618,-122 250.3618,-86 463.6382,-86 463.6382,-122"/>
<text text-anchor="middle" x="357" y="-99.8" font-family="Times,serif" font-size="14.00" fill="#000000">W3MatConfirmDialogComponent </text>
</g>
<!-- W3NotificationModule&#45;&gt;W3MatConfirmDialogComponent  -->
<g id="edge14" class="edge">
<title>W3NotificationModule&#45;&gt;W3MatConfirmDialogComponent </title>
<path fill="none" stroke="#000000" stroke-dasharray="5,2" d="M332.431,-161.9891C332.431,-161.9891 332.431,-132.145 332.431,-132.145"/>
<polygon fill="#000000" stroke="#000000" points="335.9311,-132.145 332.431,-122.145 328.9311,-132.1451 335.9311,-132.145"/>
</g>
<!-- W3AuthInterceptor -->
<g id="node5" class="node">
<title>W3AuthInterceptor</title>
<ellipse fill="#fdb462" stroke="#000000" cx="976" cy="-104" rx="86.7991" ry="18"/>
<text text-anchor="middle" x="976" y="-99.8" font-family="Times,serif" font-size="14.00" fill="#000000">W3AuthInterceptor</text>
</g>
<!-- W3AuthModule -->
<g id="node7" class="node">
<title>W3AuthModule</title>
<polygon fill="#8dd3c7" stroke="#000000" points="1029.7619,-198 1026.7619,-202 1005.7619,-202 1002.7619,-198 922.2381,-198 922.2381,-162 1029.7619,-162 1029.7619,-198"/>
<text text-anchor="middle" x="976" y="-175.8" font-family="Times,serif" font-size="14.00" fill="#000000">W3AuthModule</text>
</g>
<!-- W3AuthInterceptor&#45;&gt;W3AuthModule -->
<g id="edge4" class="edge">
<title>W3AuthInterceptor&#45;&gt;W3AuthModule</title>
<path fill="none" stroke="#000000" d="M958.0397,-121.627C958.0397,-121.627 958.0397,-151.9409 958.0397,-151.9409"/>
<polygon fill="#000000" stroke="#000000" points="954.5398,-151.9408 958.0397,-161.9409 961.5398,-151.9409 954.5398,-151.9408"/>
</g>
<!-- W3AuthInterceptor&#45;&gt;W3AuthModule -->
<g id="edge5" class="edge">
<title>W3AuthInterceptor&#45;&gt;W3AuthModule</title>
<path fill="none" stroke="#000000" d="M993.9603,-121.627C993.9603,-121.627 993.9603,-151.9409 993.9603,-151.9409"/>
<polygon fill="#000000" stroke="#000000" points="990.4604,-151.9408 993.9603,-161.9409 997.4604,-151.9409 990.4604,-151.9408"/>
</g>
<!-- W3MeService -->
<g id="node6" class="node">
<title>W3MeService</title>
<ellipse fill="#fdb462" stroke="#000000" cx="805" cy="-104" rx="66.6132" ry="18"/>
<text text-anchor="middle" x="805" y="-99.8" font-family="Times,serif" font-size="14.00" fill="#000000">W3MeService</text>
</g>
<!-- W3MeService&#45;&gt;W3AuthModule -->
<g id="edge6" class="edge">
<title>W3MeService&#45;&gt;W3AuthModule</title>
<path fill="none" stroke="#000000" d="M805,-122.0109C805,-144.4852 805,-180 805,-180 805,-180 911.8945,-180 911.8945,-180"/>
<polygon fill="#000000" stroke="#000000" points="911.8946,-183.5001 921.8945,-180 911.8945,-176.5001 911.8946,-183.5001"/>
</g>
<!-- W3PaginatorComponent -->
<g id="node8" class="node">
<title>W3PaginatorComponent</title>
<polygon fill="#ffffb3" stroke="#000000" points="1512.7007,-122 1357.2993,-122 1357.2993,-86 1512.7007,-86 1512.7007,-122"/>
<text text-anchor="middle" x="1435" y="-99.8" font-family="Times,serif" font-size="14.00" fill="#000000">W3PaginatorComponent</text>
</g>
<!-- W3Module -->
<g id="node11" class="node">
<title>W3Module</title>
<polygon fill="#8dd3c7" stroke="#000000" points="1330.7647,-198 1327.7647,-202 1306.7647,-202 1303.7647,-198 1251.2353,-198 1251.2353,-162 1330.7647,-162 1330.7647,-198"/>
<text text-anchor="middle" x="1291" y="-175.8" font-family="Times,serif" font-size="14.00" fill="#000000">W3Module</text>
</g>
<!-- W3PaginatorComponent&#45;&gt;W3Module -->
<g id="edge7" class="edge">
<title>W3PaginatorComponent&#45;&gt;W3Module</title>
<path fill="none" stroke="#000000" d="M1409.9666,-122.0267C1409.9666,-142.7672 1409.9666,-174 1409.9666,-174 1409.9666,-174 1340.9451,-174 1340.9451,-174"/>
<polygon fill="#000000" stroke="#000000" points="1340.9451,-170.5001 1330.9451,-174 1340.9451,-177.5001 1340.9451,-170.5001"/>
</g>
<!-- W3PhonePipe -->
<g id="node9" class="node">
<title>W3PhonePipe</title>
<polygon fill="#ffffb3" stroke="#000000" points="1339.0997,-122 1242.9003,-122 1242.9003,-86 1339.0997,-86 1339.0997,-122"/>
<text text-anchor="middle" x="1291" y="-99.8" font-family="Times,serif" font-size="14.00" fill="#000000">W3PhonePipe</text>
</g>
<!-- W3PhonePipe&#45;&gt;W3Module -->
<g id="edge8" class="edge">
<title>W3PhonePipe&#45;&gt;W3Module</title>
<path fill="none" stroke="#000000" d="M1291,-122.0109C1291,-122.0109 1291,-151.855 1291,-151.855"/>
<polygon fill="#000000" stroke="#000000" points="1287.5001,-151.8549 1291,-161.855 1294.5001,-151.855 1287.5001,-151.8549"/>
</g>
<!-- W3WeekDayPipe -->
<g id="node10" class="node">
<title>W3WeekDayPipe</title>
<polygon fill="#ffffb3" stroke="#000000" points="1224.5674,-122 1107.4326,-122 1107.4326,-86 1224.5674,-86 1224.5674,-122"/>
<text text-anchor="middle" x="1166" y="-99.8" font-family="Times,serif" font-size="14.00" fill="#000000">W3WeekDayPipe</text>
</g>
<!-- W3WeekDayPipe&#45;&gt;W3Module -->
<g id="edge9" class="edge">
<title>W3WeekDayPipe&#45;&gt;W3Module</title>
<path fill="none" stroke="#000000" d="M1146.0721,-122.0267C1146.0721,-142.7672 1146.0721,-174 1146.0721,-174 1146.0721,-174 1241.0142,-174 1241.0142,-174"/>
<polygon fill="#000000" stroke="#000000" points="1241.0142,-177.5001 1251.0142,-174 1241.0141,-170.5001 1241.0142,-177.5001"/>
</g>
<!-- W3PaginatorComponent  -->
<g id="node12" class="node">
<title>W3PaginatorComponent </title>
<polygon fill="#fb8072" stroke="#000000" points="1517.2009,-263 1358.7991,-263 1358.7991,-227 1517.2009,-227 1517.2009,-263"/>
<text text-anchor="middle" x="1438" y="-240.8" font-family="Times,serif" font-size="14.00" fill="#000000">W3PaginatorComponent </text>
</g>
<!-- W3Module&#45;&gt;W3PaginatorComponent  -->
<g id="edge10" class="edge">
<title>W3Module&#45;&gt;W3PaginatorComponent </title>
<path fill="none" stroke="#000000" stroke-dasharray="5,2" d="M1330.9239,-186C1381.2546,-186 1461.2834,-186 1461.2834,-186 1461.2834,-186 1461.2834,-216.9775 1461.2834,-216.9775"/>
<polygon fill="#000000" stroke="#000000" points="1457.7835,-216.9774 1461.2834,-226.9775 1464.7835,-216.9775 1457.7835,-216.9774"/>
</g>
<!-- W3PhonePipe  -->
<g id="node13" class="node">
<title>W3PhonePipe </title>
<polygon fill="#fb8072" stroke="#000000" points="1340.6004,-263 1241.3996,-263 1241.3996,-227 1340.6004,-227 1340.6004,-263"/>
<text text-anchor="middle" x="1291" y="-240.8" font-family="Times,serif" font-size="14.00" fill="#000000">W3PhonePipe </text>
</g>
<!-- W3Module&#45;&gt;W3PhonePipe  -->
<g id="edge11" class="edge">
<title>W3Module&#45;&gt;W3PhonePipe </title>
<path fill="none" stroke="#000000" stroke-dasharray="5,2" d="M1291,-198.1061C1291,-198.1061 1291,-216.991 1291,-216.991"/>
<polygon fill="#000000" stroke="#000000" points="1287.5001,-216.9909 1291,-226.991 1294.5001,-216.991 1287.5001,-216.9909"/>
</g>
<!-- W3WeekDayPipe  -->
<g id="node14" class="node">
<title>W3WeekDayPipe </title>
<polygon fill="#fb8072" stroke="#000000" points="1223.0682,-263 1102.9318,-263 1102.9318,-227 1223.0682,-227 1223.0682,-263"/>
<text text-anchor="middle" x="1163" y="-240.8" font-family="Times,serif" font-size="14.00" fill="#000000">W3WeekDayPipe </text>
</g>
<!-- W3Module&#45;&gt;W3WeekDayPipe  -->
<g id="edge12" class="edge">
<title>W3Module&#45;&gt;W3WeekDayPipe </title>
<path fill="none" stroke="#000000" stroke-dasharray="5,2" d="M1251.1071,-186C1220.9377,-186 1184.6779,-186 1184.6779,-186 1184.6779,-186 1184.6779,-216.9775 1184.6779,-216.9775"/>
<polygon fill="#000000" stroke="#000000" points="1181.178,-216.9774 1184.6779,-226.9775 1188.178,-216.9775 1181.178,-216.9774"/>
</g>
<!-- W3MatConfirmDialogComponent -->
<g id="node15" class="node">
<title>W3MatConfirmDialogComponent</title>
<polygon fill="#ffffb3" stroke="#000000" points="697.6385,-122 488.3615,-122 488.3615,-86 697.6385,-86 697.6385,-122"/>
<text text-anchor="middle" x="593" y="-99.8" font-family="Times,serif" font-size="14.00" fill="#000000">W3MatConfirmDialogComponent</text>
</g>
<!-- W3MatConfirmDialogComponent&#45;&gt;W3NotificationModule -->
<g id="edge13" class="edge">
<title>W3MatConfirmDialogComponent&#45;&gt;W3NotificationModule</title>
<path fill="none" stroke="#000000" d="M537.3556,-122.1097C537.3556,-131.897 537.3556,-142 537.3556,-142 537.3556,-142 381.569,-142 381.569,-142 381.569,-142 381.569,-151.8903 381.569,-151.8903"/>
<polygon fill="#000000" stroke="#000000" points="378.0691,-151.8903 381.569,-161.8903 385.0691,-151.8904 378.0691,-151.8903"/>
</g>
<!-- W3NotificationService -->
<g id="node17" class="node">
<title>W3NotificationService</title>
<ellipse fill="#fdb462" stroke="#000000" cx="125" cy="-104" rx="100.6978" ry="18"/>
<text text-anchor="middle" x="125" y="-99.8" font-family="Times,serif" font-size="14.00" fill="#000000">W3NotificationService</text>
</g>
<!-- W3NotificationService&#45;&gt;W3NotificationModule -->
<g id="edge15" class="edge">
<title>W3NotificationService&#45;&gt;W3NotificationModule</title>
<path fill="none" stroke="#000000" d="M125,-122.0109C125,-144.4852 125,-180 125,-180 125,-180 273.275,-180 273.275,-180"/>
<polygon fill="#000000" stroke="#000000" points="273.275,-183.5001 283.275,-180 273.2749,-176.5001 273.275,-183.5001"/>
</g>
<!-- W3WebSocketService -->
<g id="node18" class="node">
<title>W3WebSocketService</title>
<ellipse fill="#fdb462" stroke="#000000" cx="1655" cy="-104" rx="98.3966" ry="18"/>
<text text-anchor="middle" x="1655" y="-99.8" font-family="Times,serif" font-size="14.00" fill="#000000">W3WebSocketService</text>
</g>
<!-- WebSocketModule -->
<g id="node19" class="node">
<title>WebSocketModule</title>
<polygon fill="#8dd3c7" stroke="#000000" points="1717.0814,-198 1714.0814,-202 1693.0814,-202 1690.0814,-198 1592.9186,-198 1592.9186,-162 1717.0814,-162 1717.0814,-198"/>
<text text-anchor="middle" x="1655" y="-175.8" font-family="Times,serif" font-size="14.00" fill="#000000">WebSocketModule</text>
</g>
<!-- W3WebSocketService&#45;&gt;WebSocketModule -->
<g id="edge16" class="edge">
<title>W3WebSocketService&#45;&gt;WebSocketModule</title>
<path fill="none" stroke="#000000" d="M1655,-122.0109C1655,-122.0109 1655,-151.855 1655,-151.855"/>
<polygon fill="#000000" stroke="#000000" points="1651.5001,-151.8549 1655,-161.855 1658.5001,-151.855 1651.5001,-151.8549"/>
</g>
</g>
</svg>
