<?xml version="1.0" encoding="UTF-8" standalone="no"?>
<!DOCTYPE svg PUBLIC "-//W3C//DTD SVG 1.1//EN"
 "http://www.w3.org/Graphics/SVG/1.1/DTD/svg11.dtd">
<!-- Generated by graphviz version 2.40.1 (20161225.0304)
 -->
<!-- Title: dependencies Pages: 1 -->
<svg width="504pt" height="284pt"
 viewBox="0.00 0.00 504.00 284.00" xmlns="http://www.w3.org/2000/svg" xmlns:xlink="http://www.w3.org/1999/xlink">
<g id="graph0" class="graph" transform="scale(1 1) rotate(0) translate(4 280)">
<title>dependencies</title>
<polygon fill="#ffffff" stroke="transparent" points="-4,4 -4,-280 500,-280 500,4 -4,4"/>
<text text-anchor="start" x="227.0091" y="-42.4" font-family="sans-serif" font-weight="bold" font-size="14.00" fill="#000000">Legend</text>
<polygon fill="#ffffb3" stroke="transparent" points="14,-10 14,-30 34,-30 34,-10 14,-10"/>
<text text-anchor="start" x="37.629" y="-15.4" font-family="sans-serif" font-size="14.00" fill="#000000"> &#160;Declarations</text>
<polygon fill="#8dd3c7" stroke="transparent" points="127,-10 127,-30 147,-30 147,-10 127,-10"/>
<text text-anchor="start" x="150.7251" y="-15.4" font-family="sans-serif" font-size="14.00" fill="#000000"> &#160;Module</text>
<polygon fill="#80b1d3" stroke="transparent" points="213,-10 213,-30 233,-30 233,-10 213,-10"/>
<text text-anchor="start" x="236.7812" y="-15.4" font-family="sans-serif" font-size="14.00" fill="#000000"> &#160;Bootstrap</text>
<polygon fill="#fdb462" stroke="transparent" points="310,-10 310,-30 330,-30 330,-10 310,-10"/>
<text text-anchor="start" x="333.6732" y="-15.4" font-family="sans-serif" font-size="14.00" fill="#000000"> &#160;Providers</text>
<polygon fill="#fb8072" stroke="transparent" points="406,-10 406,-30 426,-30 426,-10 406,-10"/>
<text text-anchor="start" x="429.7258" y="-15.4" font-family="sans-serif" font-size="14.00" fill="#000000"> &#160;Exports</text>
<g id="clust1" class="cluster">
<title>cluster_W3Module</title>
<polygon fill="none" stroke="#000000" stroke-dasharray="1,5" points="25,-70 25,-268 471,-268 471,-70 25,-70"/>
</g>
<g id="clust2" class="cluster">
<title>cluster_W3Module_declarations</title>
<polygon fill="none" stroke="#000000" points="37,-78 37,-130 459,-130 459,-78 37,-78"/>
</g>
<g id="clust7" class="cluster">
<title>cluster_W3Module_exports</title>
<polygon fill="none" stroke="#000000" points="33,-208 33,-260 463,-260 463,-208 33,-208"/>
</g>
<!-- W3PaginatorComponent -->
<g id="node1" class="node">
<title>W3PaginatorComponent</title>
<polygon fill="#ffffb3" stroke="#000000" points="450.7007,-122 295.2993,-122 295.2993,-86 450.7007,-86 450.7007,-122"/>
<text text-anchor="middle" x="373" y="-99.8" font-family="Times,serif" font-size="14.00" fill="#000000">W3PaginatorComponent</text>
</g>
<!-- W3Module -->
<g id="node4" class="node">
<title>W3Module</title>
<polygon fill="#8dd3c7" stroke="#000000" points="268.7647,-187 265.7647,-191 244.7647,-191 241.7647,-187 189.2353,-187 189.2353,-151 268.7647,-151 268.7647,-187"/>
<text text-anchor="middle" x="229" y="-164.8" font-family="Times,serif" font-size="14.00" fill="#000000">W3Module</text>
</g>
<!-- W3PaginatorComponent&#45;&gt;W3Module -->
<g id="edge1" class="edge">
<title>W3PaginatorComponent&#45;&gt;W3Module</title>
<path fill="none" stroke="#000000" d="M399.2834,-122.0225C399.2834,-139.3734 399.2834,-163 399.2834,-163 399.2834,-163 278.9239,-163 278.9239,-163"/>
<polygon fill="#000000" stroke="#000000" points="278.9239,-159.5001 268.9239,-163 278.9239,-166.5001 278.9239,-159.5001"/>
</g>
<!-- W3PhonePipe -->
<g id="node2" class="node">
<title>W3PhonePipe</title>
<polygon fill="#ffffb3" stroke="#000000" points="277.0997,-122 180.9003,-122 180.9003,-86 277.0997,-86 277.0997,-122"/>
<text text-anchor="middle" x="229" y="-99.8" font-family="Times,serif" font-size="14.00" fill="#000000">W3PhonePipe</text>
</g>
<!-- W3PhonePipe&#45;&gt;W3Module -->
<g id="edge2" class="edge">
<title>W3PhonePipe&#45;&gt;W3Module</title>
<path fill="none" stroke="#000000" d="M229,-122.1061C229,-122.1061 229,-140.991 229,-140.991"/>
<polygon fill="#000000" stroke="#000000" points="225.5001,-140.9909 229,-150.991 232.5001,-140.991 225.5001,-140.9909"/>
</g>
<!-- W3WeekDayPipe -->
<g id="node3" class="node">
<title>W3WeekDayPipe</title>
<polygon fill="#ffffb3" stroke="#000000" points="162.5674,-122 45.4326,-122 45.4326,-86 162.5674,-86 162.5674,-122"/>
<text text-anchor="middle" x="104" y="-99.8" font-family="Times,serif" font-size="14.00" fill="#000000">W3WeekDayPipe</text>
</g>
<!-- W3WeekDayPipe&#45;&gt;W3Module -->
<g id="edge3" class="edge">
<title>W3WeekDayPipe&#45;&gt;W3Module</title>
<path fill="none" stroke="#000000" d="M122.6779,-122.0225C122.6779,-139.3734 122.6779,-163 122.6779,-163 122.6779,-163 179.1071,-163 179.1071,-163"/>
<polygon fill="#000000" stroke="#000000" points="179.1071,-166.5001 189.1071,-163 179.107,-159.5001 179.1071,-166.5001"/>
</g>
<!-- W3PaginatorComponent  -->
<g id="node5" class="node">
<title>W3PaginatorComponent </title>
<polygon fill="#fb8072" stroke="#000000" points="455.2009,-252 296.7991,-252 296.7991,-216 455.2009,-216 455.2009,-252"/>
<text text-anchor="middle" x="376" y="-229.8" font-family="Times,serif" font-size="14.00" fill="#000000">W3PaginatorComponent </text>
</g>
<!-- W3Module&#45;&gt;W3PaginatorComponent  -->
<g id="edge4" class="edge">
<title>W3Module&#45;&gt;W3PaginatorComponent </title>
<path fill="none" stroke="#000000" stroke-dasharray="5,2" d="M268.9451,-175C303.5061,-175 347.9666,-175 347.9666,-175 347.9666,-175 347.9666,-205.9775 347.9666,-205.9775"/>
<polygon fill="#000000" stroke="#000000" points="344.4667,-205.9774 347.9666,-215.9775 351.4667,-205.9775 344.4667,-205.9774"/>
</g>
<!-- W3PhonePipe  -->
<g id="node6" class="node">
<title>W3PhonePipe </title>
<polygon fill="#fb8072" stroke="#000000" points="278.6004,-252 179.3996,-252 179.3996,-216 278.6004,-216 278.6004,-252"/>
<text text-anchor="middle" x="229" y="-229.8" font-family="Times,serif" font-size="14.00" fill="#000000">W3PhonePipe </text>
</g>
<!-- W3Module&#45;&gt;W3PhonePipe  -->
<g id="edge5" class="edge">
<title>W3Module&#45;&gt;W3PhonePipe </title>
<path fill="none" stroke="#000000" stroke-dasharray="5,2" d="M229,-187.1061C229,-187.1061 229,-205.991 229,-205.991"/>
<polygon fill="#000000" stroke="#000000" points="225.5001,-205.9909 229,-215.991 232.5001,-205.991 225.5001,-205.9909"/>
</g>
<!-- W3WeekDayPipe  -->
<g id="node7" class="node">
<title>W3WeekDayPipe </title>
<polygon fill="#fb8072" stroke="#000000" points="161.0682,-252 40.9318,-252 40.9318,-216 161.0682,-216 161.0682,-252"/>
<text text-anchor="middle" x="101" y="-229.8" font-family="Times,serif" font-size="14.00" fill="#000000">W3WeekDayPipe </text>
</g>
<!-- W3Module&#45;&gt;W3WeekDayPipe  -->
<g id="edge6" class="edge">
<title>W3Module&#45;&gt;W3WeekDayPipe </title>
<path fill="none" stroke="#000000" stroke-dasharray="5,2" d="M189.0142,-175C146.1164,-175 84.0721,-175 84.0721,-175 84.0721,-175 84.0721,-205.9775 84.0721,-205.9775"/>
<polygon fill="#000000" stroke="#000000" points="80.5722,-205.9774 84.0721,-215.9775 87.5722,-205.9775 80.5722,-205.9774"/>
</g>
</g>
</svg>
